<svg width="19" height="14" viewBox="0 0 19 14" fill="none" xmlns="http://www.w3.org/2000/svg">
<path d="M11.9615 3.92263V2.38416C11.9615 1.97614 11.7995 1.58483 11.5109 1.29631C11.2224 1.00779 10.8311 0.845703 10.4231 0.845703H3.03846C2.63044 0.845703 2.23912 1.00779 1.9506 1.29631C1.66209 1.58483 1.5 1.97614 1.5 2.38416V11.6149C1.5 12.023 1.66209 12.4143 1.9506 12.7028C2.23912 12.9913 2.63044 13.1534 3.03846 13.1534H10.4231C10.8311 13.1534 11.2224 12.9913 11.5109 12.7028C11.7995 12.4143 11.9615 12.023 11.9615 11.6149V10.0765" stroke="#FF0000" stroke-width="1.5" stroke-linecap="round" stroke-linejoin="round"/>
<path d="M14.4229 3.92285L17.4998 6.99977L14.4229 10.0767" stroke="#FF0000" stroke-width="1.5" stroke-linecap="round" stroke-linejoin="round"/>
<path d="M7 7H17.5" stroke="#FF0000" stroke-width="1.5" stroke-linecap="round" stroke-linejoin="round"/>
</svg>
