<svg width="33" height="32" viewBox="0 0 33 32" fill="none" xmlns="http://www.w3.org/2000/svg">
<path d="M11.1679 16C11.1679 13.0546 13.5551 10.6662 16.5006 10.6662C19.4462 10.6662 21.8346 13.0546 21.8346 16C21.8346 18.9454 19.4462 21.3338 16.5006 21.3338C13.5551 21.3338 11.1679 18.9454 11.1679 16ZM8.2845 16C8.2845 20.5376 11.9629 24.2158 16.5006 24.2158C21.0384 24.2158 24.7168 20.5376 24.7168 16C24.7168 11.4624 21.0384 7.78419 16.5006 7.78419C11.9629 7.78419 8.2845 11.4624 8.2845 16ZM23.122 7.45843C23.1215 8.51882 23.9808 9.37878 25.0413 9.3792C26.1017 9.37962 26.9617 8.52036 26.9621 7.45997C26.9625 6.39958 26.1032 5.53962 25.0428 5.5392C23.9829 5.53969 23.1229 6.39855 23.122 7.45843ZM10.0364 29.0236C8.47638 28.9526 7.62848 28.6927 7.065 28.4732C6.31796 28.1824 5.78495 27.836 5.22454 27.2764C4.66413 26.7168 4.31724 26.1843 4.02769 25.4373C3.80804 24.8741 3.54819 24.026 3.47727 22.466C3.3997 20.7795 3.38421 20.2729 3.38421 16.0001C3.38421 11.7274 3.40098 11.2221 3.47727 9.53421C3.54831 7.97427 3.81008 7.12781 4.02769 6.56294C4.31852 5.81594 4.6649 5.28294 5.22454 4.72256C5.78418 4.16218 6.31668 3.8153 7.065 3.52576C7.62822 3.30611 8.47638 3.04627 10.0364 2.97536C11.723 2.89779 12.2296 2.8823 16.5006 2.8823C20.7717 2.8823 21.2788 2.89907 22.9668 2.97536C24.5268 3.0464 25.3733 3.30816 25.9382 3.52576C26.6852 3.8153 27.2183 4.16294 27.7787 4.72256C28.3391 5.28218 28.6847 5.81594 28.9755 6.56294C29.1952 7.12614 29.455 7.97427 29.5259 9.53421C29.6035 11.2221 29.619 11.7274 29.619 16.0001C29.619 20.2729 29.6035 20.7781 29.5259 22.466C29.4549 24.026 29.1938 24.8739 28.9755 25.4373C28.6847 26.1843 28.3383 26.7173 27.7787 27.2764C27.219 27.8355 26.6852 28.1824 25.9382 28.4732C25.375 28.6929 24.5268 28.9527 22.9668 29.0236C21.2802 29.1012 20.7736 29.1167 16.5006 29.1167C12.2277 29.1167 11.7225 29.1012 10.0364 29.0236ZM9.9039 0.096896C8.20053 0.174464 7.03658 0.444544 6.02009 0.840064C4.96738 1.24851 4.07621 1.79648 3.18568 2.68557C2.29514 3.57466 1.74856 4.4672 1.3401 5.51987C0.944562 6.53696 0.674471 7.70022 0.5969 9.40352C0.518049 11.1095 0.5 11.6549 0.5 16C0.5 20.3451 0.518049 20.8905 0.5969 22.5965C0.674471 24.2999 0.944562 25.463 1.3401 26.4801C1.74856 27.5322 2.29527 28.4257 3.18568 29.3144C4.07608 30.2031 4.96738 30.7503 6.02009 31.1599C7.0385 31.5555 8.20053 31.8255 9.9039 31.9031C11.6108 31.9807 12.1554 32 16.5006 32C20.8459 32 21.3913 31.982 23.0974 31.9031C24.8009 31.8255 25.9641 31.5555 26.9812 31.1599C28.0333 30.7503 28.9251 30.2035 29.8156 29.3144C30.7061 28.4253 31.2516 27.5322 31.6612 26.4801C32.0567 25.463 32.3281 24.2998 32.4044 22.5965C32.482 20.8892 32.5 20.3451 32.5 16C32.5 11.6549 32.482 11.1095 32.4044 9.40352C32.3268 7.7001 32.0567 6.53632 31.6612 5.51987C31.2516 4.46784 30.7047 3.57606 29.8156 2.68557C28.9265 1.79507 28.0333 1.24851 26.9825 0.840064C25.9641 0.444544 24.8007 0.173184 23.0987 0.096896C21.3926 0.019328 20.8472 0 16.5019 0C12.1567 0 11.6108 0.018048 9.9039 0.096896Z" fill="url(#paint0_radial_8_151)"/>
<defs>
<radialGradient id="paint0_radial_8_151" cx="0" cy="0" r="1" gradientUnits="userSpaceOnUse" gradientTransform="translate(68.525 514.419) scale(668.4)">
<stop offset="0.09" stop-color="#FA8F21"/>
<stop offset="0.78" stop-color="#D82D7E"/>
</radialGradient>
</defs>
</svg>
