<svg width="160" height="60" viewBox="0 0 160 60" fill="none" xmlns="http://www.w3.org/2000/svg">
<path d="M36.946 54.43C37.335 55.495 37.918 56.198 38.696 56.535V56.681C37.983 56.554 37.27 56.492 36.557 56.492C35.791 56.492 35.027 56.555 34.261 56.681V56.554C34.261 56.442 34.351 56.253 34.533 55.986C34.766 55.634 34.884 55.369 34.884 55.185C34.884 55.06 34.868 54.92 34.836 54.765C34.803 54.611 34.767 54.477 34.729 54.365L33.211 49.859C32.213 49.761 31.357 49.711 30.644 49.711C29.671 49.711 28.77 49.762 27.94 49.859L26.209 54.744C26.054 55.18 25.976 55.509 25.976 55.734C25.976 56.029 26.093 56.301 26.326 56.554V56.681C25.806 56.596 25.282 56.554 24.75 56.554C24.167 56.554 23.589 56.596 23.019 56.681L23.116 56.554C24.101 56.216 24.815 55.474 25.256 54.322L29.964 42.006C30.003 41.88 30.023 41.761 30.023 41.649C30.023 41.243 29.883 40.825 29.605 40.397C29.327 39.969 28.972 39.599 28.544 39.291L28.505 39.144C28.803 39.172 29.177 39.197 29.624 39.218C30.072 39.239 30.477 39.248 30.84 39.248H31.366L32.261 41.712L36.946 54.43ZM32.802 48.744L30.739 42.806H30.681L28.444 48.744V48.848C29.144 48.89 29.864 48.911 30.603 48.911C31.355 48.911 32.088 48.89 32.801 48.848L32.802 48.744Z" fill="#5D4997"/>
<path d="M49.9921 46.1818H49.8861C49.5881 46.1048 49.3001 46.0488 49.0191 46.0138C48.7391 45.9798 48.4071 45.9628 48.0241 45.9628C47.4071 45.9628 46.8121 46.1098 46.2371 46.4058C45.6621 46.7008 45.1101 47.0828 44.5781 47.5508V56.6798H42.5781V43.8198H44.5781V45.7198C45.3721 45.0288 46.0721 44.5398 46.6791 44.2518C47.2851 43.9638 47.9041 43.8188 48.5351 43.8188C48.8821 43.8188 49.1341 43.8288 49.2901 43.8478C49.4461 43.8678 49.6801 43.9038 49.9921 43.9568V46.1818Z" fill="#5D4997"/>
<path d="M58.0431 56.564C57.6681 56.671 57.2581 56.76 56.8141 56.83C56.3711 56.898 55.9761 56.934 55.6281 56.934C54.4161 56.934 53.4941 56.58 52.8631 55.874C52.2321 55.168 51.9161 54.036 51.9161 52.478V45.64H50.5651V43.82H51.9161V40.125H53.9161V43.82H58.0431V45.64H53.9161V51.5C53.9161 52.176 53.9301 52.703 53.9591 53.082C53.9871 53.463 54.0861 53.817 54.2571 54.147C54.4131 54.454 54.6271 54.678 54.9001 54.82C55.1731 54.963 55.5901 55.033 56.1501 55.033C56.4761 55.033 56.8171 54.982 57.1711 54.879C57.5251 54.776 57.7811 54.689 57.9371 54.619H58.0431V56.564Z" fill="#5D4997"/>
<path d="M101.367 43.8198L96.5591 56.6798H94.5491L89.7731 43.8198H91.9431L95.6231 54.0548L99.2711 43.8198H101.367Z" fill="#5D4997"/>
<path d="M106.132 41.6678H103.877V39.4238H106.132V41.6678ZM106.004 56.6798H104.005V43.8198H106.004V56.6798Z" fill="#5D4997"/>
<path d="M119.906 50.4749H111.152C111.152 51.2659 111.262 51.9549 111.482 52.5409C111.701 53.1289 112.003 53.6099 112.386 53.9859C112.755 54.3539 113.192 54.6309 113.699 54.8139C114.206 54.9999 114.764 55.0909 115.374 55.0909C116.183 55.0909 116.997 54.9159 117.815 54.5679C118.633 54.2179 119.217 53.8749 119.565 53.5369H119.671V55.8959C118.996 56.2049 118.309 56.4599 117.608 56.6669C116.906 56.8749 116.169 56.9789 115.395 56.9789C113.424 56.9789 111.885 56.4019 110.778 55.2459C109.673 54.0919 109.12 52.4509 109.12 50.3249C109.12 48.2219 109.649 46.5529 110.71 45.3169C111.771 44.0809 113.165 43.4629 114.896 43.4629C116.499 43.4629 117.734 43.9699 118.603 44.9839C119.472 45.9959 119.906 47.4349 119.906 49.2999V50.4749ZM117.96 48.8169C117.953 47.6809 117.689 46.8019 117.168 46.1809C116.647 45.5589 115.854 45.2469 114.79 45.2469C113.719 45.2469 112.866 45.5889 112.232 46.2719C111.597 46.9549 111.238 47.8029 111.152 48.8159L117.96 48.8169Z" fill="#5D4997"/>
<path d="M137.882 43.8198L134.787 56.6788H132.936L129.883 46.7668L126.851 56.6788H125.011L121.884 43.8198H123.969L126.15 53.7788L129.117 43.8198H130.766L133.808 53.7788L135.871 43.8198H137.882Z" fill="#5D4997"/>
<path d="M85.276 10.6582L85.384 1.96919L76.971 1.86719C76.971 1.86719 83.101 3.90719 85.276 10.6582Z" fill="#111B2C"/>
<path d="M74.597 10.502C74.597 10.502 87.072 11.443 88.522 22.59C89.973 33.738 68.215 40.959 69.085 18.508C69.085 18.508 69.955 24.474 75.757 27.928C81.559 31.382 85.33 25.73 84.17 21.334C83.01 16.938 78.803 15.368 78.803 15.368L74.597 10.502Z" fill="#111B2C"/>
<path d="M141.679 25.082H90.617V28.829H141.679V25.082Z" fill="#111B2C"/>
<path d="M64.623 25.082H18.322V28.829H64.623V25.082Z" fill="#111B2C"/>
<path d="M83.073 36.0781H71.068C71.022 36.0781 70.984 36.1191 70.984 36.1691V52.4121C70.984 52.4351 70.993 52.4591 71.009 52.4751L74.011 55.7241C74.034 55.7491 74.071 55.7571 74.101 55.7441C74.132 55.7301 74.153 55.6991 74.153 55.6621V46.0051H75.487V57.2851C75.487 57.3101 75.496 57.3321 75.512 57.3481L77.013 58.9721C77.044 59.0081 77.097 59.0081 77.13 58.9721L78.63 57.3481C78.646 57.3311 78.655 57.3101 78.655 57.2851V46.0051H79.988V55.6621C79.988 55.6991 80.009 55.7301 80.041 55.7441C80.072 55.7581 80.107 55.7501 80.132 55.7241L83.134 52.4751C83.149 52.4581 83.157 52.4351 83.157 52.4121V36.1691C83.158 36.1191 83.121 36.0781 83.073 36.0781Z" fill="#111B2C"/>
</svg>
