<svg width="28" height="20" viewBox="0 0 28 20" fill="none" xmlns="http://www.w3.org/2000/svg">
<path d="M0.17395 1.30435C0.17395 0.583983 0.757933 0 1.4783 0H26.6957C27.416 0 28 0.583983 28 1.30435C28 2.02471 27.416 2.6087 26.6957 2.6087H1.4783C0.757933 2.6087 0.17395 2.02471 0.17395 1.30435Z" fill="#212121"/>
<path d="M0.17395 10.0001C0.17395 9.27978 0.757933 8.6958 1.4783 8.6958H26.6957C27.416 8.6958 28 9.27978 28 10.0001C28 10.7205 27.416 11.3045 26.6957 11.3045H1.4783C0.757933 11.3045 0.17395 10.7205 0.17395 10.0001Z" fill="#212121"/>
<path d="M1.4783 17.3911C0.757933 17.3911 0.17395 17.9751 0.17395 18.6955C0.17395 19.4158 0.757933 19.9998 1.4783 19.9998H26.6957C27.416 19.9998 28 19.4158 28 18.6955C28 17.9751 27.416 17.3911 26.6957 17.3911H1.4783Z" fill="#212121"/>
</svg>
