<svg width="96" height="96" viewBox="0 0 96 96" fill="none" xmlns="http://www.w3.org/2000/svg">
<g id="help">
<path id="Vector" d="M40 76H52V88H40V76ZM48 8C69.4 8.88 78.72 30.48 66 46.68C62.68 50.68 57.32 53.32 54.68 56.68C52 60 52 64 52 68H40C40 61.32 40 55.68 42.68 51.68C45.32 47.68 50.68 45.32 54 42.68C63.68 33.72 61.28 21.04 48 20C44.8174 20 41.7652 21.2643 39.5147 23.5147C37.2643 25.7652 36 28.8174 36 32H24C24 25.6348 26.5286 19.5303 31.0294 15.0294C35.5303 10.5286 41.6348 8 48 8Z" fill="#6247AA"/>
</g>
</svg>
