<svg width="16" height="15" viewBox="0 0 16 15" fill="none" xmlns="http://www.w3.org/2000/svg">
<path d="M2.5 2.6665V0.666504H3.83333V2.6665H5.83333V3.99984H3.83333V5.99984H2.5V3.99984H0.5V2.6665H2.5ZM4.5 6.6665V4.6665H6.5V2.6665H11.1667L12.3867 3.99984H14.5C15.2333 3.99984 15.8333 4.59984 15.8333 5.33317V13.3332C15.8333 14.0665 15.2333 14.6665 14.5 14.6665H3.83333C3.1 14.6665 2.5 14.0665 2.5 13.3332V6.6665H4.5ZM9.16667 12.6665C11.0067 12.6665 12.5 11.1732 12.5 9.33317C12.5 7.49317 11.0067 5.99984 9.16667 5.99984C7.32667 5.99984 5.83333 7.49317 5.83333 9.33317C5.83333 11.1732 7.32667 12.6665 9.16667 12.6665ZM7.03333 9.33317C7.03333 10.5132 7.98667 11.4665 9.16667 11.4665C10.3467 11.4665 11.3 10.5132 11.3 9.33317C11.3 8.15317 10.3467 7.19984 9.16667 7.19984C7.98667 7.19984 7.03333 8.15317 7.03333 9.33317Z" fill="white"/>
</svg>
